<?xml version="1.0" encoding="UTF-8"?>
<!DOCTYPE svg PUBLIC "-//W3C//DTD SVG 1.1//EN" "http://www.w3.org/Graphics/SVG/1.1/DTD/svg11.dtd">
<svg version="1.1" xmlns="http://www.w3.org/2000/svg" xmlns:xlink="http://www.w3.org/1999/xlink" x="0" y="0" width="510" height="200" viewBox="0, 0, 510, 200">
  <g id="Layer_1">
    <path d="M50.127,44.354 L50.652,46.422 L51.788,50.548 L53.028,54.647 L54.373,58.705 L55.816,62.725 L57.365,66.698 L59.005,70.633 L60.753,74.513 L62.59,78.35 L64.525,82.133 L66.556,85.862 L68.677,89.537 L70.879,93.167 L73.189,96.718 L75.575,100.221 L78.034,103.674 L80.594,107.048 L83.232,110.361 L85.939,113.618 L88.732,116.801 L91.605,119.912 L94.541,122.964 L97.552,125.942 L100.641,128.841 L103.788,131.676 L106.998,134.439 L110.282,137.117 L113.619,139.727 L117.012,142.265 L120.47,144.715 L123.979,147.092 L127.535,149.395 L131.15,151.61 L134.81,153.745 L138.515,155.801 L142.26,157.778 L146.047,159.673 L149.876,161.48 L153.743,163.202 L157.646,164.838 L161.583,166.387 L165.553,167.847 L169.554,169.217 L173.586,170.496 L177.64,171.687 L181.72,172.787 L185.827,173.791 L189.956,174.698 L194.11,175.505 L198.284,176.211 L202.471,176.827 L206.676,177.342 L210.897,177.752 L215.136,178.055 L219.386,178.256 L223.647,178.352 L227.918,178.34 L232.197,178.223 L236.479,178.006 L240.769,177.672 L245.071,177.221 L249.375,176.656 L253.685,175.973 L258.001,175.165 L260.197,174.707 L260.197,174.707 C260.215,174.703 260.233,174.699 260.251,174.695 L260.251,174.695 L262.196,174.268 L266.122,173.371 L270.047,172.426 L273.954,171.434 L277.845,170.398 L281.718,169.319 L285.576,168.195 L289.418,167.029 L293.242,165.822 L297.052,164.573 L300.848,163.283 L304.627,161.953 L308.392,160.585 L312.144,159.172 L315.883,157.722 L319.606,156.236 L323.317,154.713 L327.013,153.155 L330.696,151.562 L334.366,149.936 L338.026,148.27 L341.673,146.568 L345.307,144.836 L348.928,143.073 L352.538,141.279 L356.137,139.448 L361.497,136.655 L368.612,132.812 L375.702,128.843 L379.261,126.79 L379.261,126.79 C379.273,126.784 379.285,126.777 379.296,126.77 L379.296,126.77 L381.486,125.496 L385.942,122.89 L390.478,120.194 L395.072,117.392 L399.699,114.495 L404.338,111.493 L407.833,109.145 L410.168,107.531 L412.47,105.901 L414.76,104.239 L417.036,102.542 L419.292,100.81 L421.531,99.044 L423.745,97.238 L425.935,95.394 L428.094,93.509 L430.221,91.581 L432.315,89.613 L434.374,87.606 L436.39,85.552 L438.36,83.453 L440.284,81.309 L442.161,79.122 L443.98,76.884 L445.75,74.605 L447.456,72.275 L448.326,71.03 L448.326,71.03 C448.365,70.973 448.404,70.916 448.442,70.859 L448.442,70.859 L448.601,70.625 L449.097,69.839 L449.769,68.655 L450.545,67.116 L451.239,65.6 L451.87,64.148 L452.483,62.759 L453.077,61.456 L453.652,60.28 L454.197,59.284 L454.539,58.763 L454.695,58.572 L454.836,58.42 L454.904,58.385 L454.875,58.476 L454.73,58.686 L454.463,58.987 L454.104,59.321 L453.716,59.624 L453.379,59.853 L453.156,59.999 L453.078,60.083 L453.147,60.142 L453.347,60.213 L453.415,60.253 L453.415,60.253 C455.557,60.552 458.898,58.442 460.877,55.541 C462.857,52.64 462.726,50.046 460.585,49.747 C460.585,49.747 460.585,49.747 460.585,49.747 L460.016,49.698 L458.987,49.701 L457.883,49.833 L456.686,50.121 L455.394,50.598 L454.037,51.275 L452.676,52.137 L451.387,53.136 L450.231,54.197 L449.237,55.256 L448.395,56.28 L447.684,57.253 L447.078,58.176 L446.516,59.122 L445.83,60.403 L445.083,61.956 L444.439,63.442 L443.866,64.858 L443.345,66.185 L442.857,67.392 L442.425,68.417 L442.049,69.246 L441.829,69.689 L441.712,69.903 L441.558,70.141 L441.674,69.97 L441.076,70.844 L439.748,72.69 L438.361,74.504 L436.905,76.28 L435.394,78.028 L433.822,79.743 L432.193,81.428 L430.514,83.087 L428.786,84.72 L427.007,86.325 L425.181,87.901 L423.311,89.456 L421.401,90.987 L419.453,92.496 L417.469,93.984 L415.45,95.449 L413.401,96.893 L411.324,98.316 L409.222,99.72 L407.12,101.089 L403.912,103.125 L399.553,105.808 L395.151,108.426 L390.726,110.985 L386.302,113.509 L381.895,115.998 L379.704,117.23 L379.739,117.21 L376.366,119.089 L369.539,122.841 L362.662,126.514 L357.474,129.219 L354.014,130.984 L350.544,132.728 L347.062,134.445 L343.569,136.132 L340.064,137.789 L336.548,139.418 L333.016,141.023 L329.471,142.596 L325.912,144.136 L322.34,145.643 L318.752,147.116 L315.15,148.554 L311.533,149.956 L307.897,151.329 L304.245,152.665 L300.576,153.963 L296.89,155.223 L293.185,156.445 L289.464,157.627 L285.723,158.769 L281.963,159.869 L278.184,160.928 L274.384,161.945 L270.565,162.919 L266.709,163.852 L264.749,164.305 L264.803,164.293 L262.802,164.737 L258.721,165.552 L254.628,166.253 L250.528,166.836 L246.428,167.298 L242.322,167.648 L238.215,167.887 L234.117,168.001 L230.025,167.998 L225.941,167.884 L221.865,167.659 L217.802,167.323 L213.749,166.883 L209.709,166.341 L205.684,165.695 L201.682,164.938 L197.699,164.082 L193.734,163.129 L189.791,162.081 L185.869,160.938 L181.974,159.7 L178.111,158.363 L174.275,156.936 L170.468,155.421 L166.692,153.818 L162.949,152.129 L159.24,150.356 L155.567,148.5 L151.927,146.568 L148.326,144.555 L144.765,142.463 L141.246,140.294 L137.77,138.051 L134.328,135.746 L130.932,133.368 L127.585,130.918 L124.272,128.414 L121.009,125.844 L117.798,123.207 L114.625,120.519 L111.502,117.775 L108.436,114.967 L105.413,112.113 L102.438,109.212 L99.524,106.251 L96.66,103.245 L93.842,100.201 L91.09,97.103 L88.398,93.959 L85.747,90.788 L83.166,87.566 L80.658,84.294 L78.191,81.003 L75.798,77.666 L73.47,74.293 L71.207,70.886 L69.009,67.448 L66.887,63.972 L64.827,60.472 L62.848,56.934 L60.938,53.371 L59.108,49.775 L57.354,46.153 L55.682,42.494 L54.873,40.646 C54.873,40.646 54.873,40.646 54.873,40.646 C54.576,39.775 53.273,39.9 51.962,40.924 C50.651,41.948 49.83,43.484 50.127,44.354 L50.127,44.354" fill="#000000"/>
    <path d="M405.315,58.206 L405.113,58.07 L404.6,57.961 L403.923,58.115 L403.068,58.616 L402.063,59.585 L401.191,60.961 L400.949,62.212 L401.113,63.047 L401.451,63.53 L401.832,63.808 L402.215,63.978 L402.597,64.087 L402.982,64.161 L403.377,64.211 L403.785,64.244 L404.21,64.263 L404.654,64.269 L405.121,64.259 L405.851,64.224 L406.903,64.146 L408.045,64.033 L409.263,63.877 L410.544,63.695 L411.88,63.485 L413.261,63.247 L415.385,62.856 L418.28,62.27 L421.153,61.658 L423.246,61.18 L424.585,60.869 L425.862,60.567 L427.068,60.279 L428.192,60.007 L429.222,59.755 L430.147,59.525 L430.768,59.366 L431.143,59.269 L431.484,59.181 L431.791,59.1 L432.064,59.029 L432.3,58.966 L432.408,58.937 L432.408,58.937 C432.422,58.934 432.435,58.93 432.449,58.927 L432.449,58.927 L434.147,58.455 L437.636,57.398 L441.129,56.225 L444.587,54.968 L448.003,53.653 L451.38,52.292 L456.36,50.22 L459.641,48.836 L459.64,48.836 L460.237,48.584 L461.409,48.09 L462.552,47.608 L463.666,47.139 L464.749,46.683 L465.804,46.24 L466.83,45.81 L467.828,45.393 L468.797,44.99 L469.738,44.599 L470.651,44.221 L471.537,43.857 L472.395,43.506 L473.226,43.168 L474.03,42.843 L474.806,42.533 L475.926,42.092 L477.326,41.55 L478.621,41.062 L479.812,40.629 L480.901,40.253 L481.889,39.932 L482.777,39.665 L483.566,39.451 L484.253,39.294 L484.839,39.189 L485.326,39.131 L485.712,39.119 L486.002,39.146 L486.201,39.2 L486.323,39.268 L486.38,39.345 L486.394,39.421 L486.386,39.497 L486.369,39.587 L486.327,39.721 L486.263,39.911 L486.171,40.168 L486.043,40.502 L485.877,40.914 L485.67,41.405 L485.413,41.977 L485.107,42.626 L484.751,43.35 L484.352,44.147 L483.925,45.011 L483.458,45.942 L482.953,46.941 L482.413,48.005 L481.854,49.132 L481.271,50.32 L480.662,51.571 L480.031,52.883 L479.393,54.254 L478.742,55.684 L478.076,57.173 L477.403,58.721 L476.735,60.324 L476.062,61.984 L475.387,63.702 L474.725,65.473 L474.069,67.299 L473.418,69.181 L472.788,71.116 L472.174,73.103 L471.573,75.145 L471.003,77.236 L470.456,79.38 L469.933,81.575 L469.451,83.817 L468.996,86.112 L468.586,88.45 L468.394,89.651 L468.394,89.651 C468.393,89.657 468.392,89.662 468.391,89.668 L468.391,89.668 L468.283,90.371 L468.072,91.77 L467.887,93.154 L467.723,94.525 L467.585,95.884 L467.483,97.232 L467.435,98.56 L467.433,99.875 L467.484,101.177 L467.617,102.45 L467.821,103.703 L468.096,104.938 L468.489,106.125 L468.97,107.287 L469.589,108.389 L470.34,109.436 L470.835,109.895 L470.835,109.895 C471.108,110.467 472.075,110.306 472.995,109.535 C473.914,108.765 474.439,107.677 474.165,107.105 L474.096,106.384 L473.865,105.062 L473.686,103.779 L473.541,102.539 L473.469,101.303 L473.43,100.091 L473.455,98.871 L473.537,97.643 L473.65,96.411 L473.812,95.159 L474.02,93.882 L474.252,92.585 L474.514,91.257 L474.807,89.895 L475.122,88.497 L475.443,87.065 L475.609,86.332 L475.606,86.349 L475.876,85.188 L476.433,82.887 L476.996,80.654 L477.581,78.479 L478.166,76.369 L478.766,74.317 L479.377,72.325 L479.986,70.393 L480.606,68.516 L481.23,66.697 L481.848,64.935 L482.471,63.227 L483.095,61.573 L483.706,59.974 L484.316,58.427 L484.923,56.93 L485.512,55.488 L486.092,54.095 L486.665,52.749 L487.223,51.453 L487.757,50.206 L488.278,49.004 L488.785,47.847 L489.27,46.735 L489.724,45.666 L490.159,44.639 L490.573,43.651 L490.964,42.7 L491.314,41.787 L491.636,40.908 L491.928,40.059 L492.189,39.237 L492.412,38.439 L492.585,37.667 L492.7,36.92 L492.751,36.201 L492.723,35.519 L492.609,34.883 L492.405,34.307 L492.091,33.82 L491.675,33.437 L491.173,33.156 L490.604,32.969 L489.974,32.869 L489.292,32.845 L488.56,32.884 L487.777,32.978 L486.938,33.126 L486.038,33.323 L485.075,33.564 L484.041,33.852 L482.933,34.186 L481.745,34.566 L480.477,34.988 L479.123,35.456 L477.682,35.968 L476.54,36.382 L475.747,36.674 L474.93,36.975 L474.089,37.288 L473.222,37.613 L472.331,37.948 L471.414,38.295 L470.471,38.654 L469.502,39.024 L468.506,39.405 L467.483,39.798 L466.433,40.203 L465.355,40.618 L464.249,41.046 L463.116,41.484 L461.953,41.934 L461.36,42.164 L461.36,42.164 C461.36,42.164 461.359,42.164 461.359,42.164 L461.359,42.164 L458.149,43.411 L453.32,45.267 L450.112,46.462 L446.904,47.614 L443.699,48.698 L440.49,49.707 L437.238,50.636 L435.551,51.073 L435.592,51.063 L435.502,51.085 L435.286,51.138 L435.031,51.201 L434.74,51.271 L434.413,51.35 L434.055,51.436 L433.458,51.578 L432.557,51.794 L431.551,52.035 L430.452,52.295 L429.273,52.57 L428.025,52.858 L426.723,53.154 L424.691,53.606 L421.879,54.236 L419.051,54.84 L416.973,55.276 L415.639,55.544 L414.357,55.797 L413.14,56.028 L412.006,56.228 L410.962,56.406 L410.021,56.548 L409.395,56.627 L409.031,56.667 L408.705,56.703 L408.424,56.727 L408.193,56.743 L408.018,56.751 L407.907,56.759 L407.869,56.776 L407.911,56.827 L408.032,56.958 L408.196,57.265 L408.273,57.895 L408.035,58.911 L407.26,60.021 L406.45,60.692 L405.888,60.862 L405.607,60.651 L405.596,60.143 L405.685,59.794 C406.31,59.337 406.733,58.612 406.631,58.173 C406.529,57.735 405.94,57.75 405.315,58.206 L405.315,58.206" fill="#000000"/>
    <path d="M39.321,45.255 L39.08,44.982 L38.575,44.478 L38.061,44.062 L37.525,43.745 L36.927,43.53 L36.176,43.449 L35.101,43.628 L33.56,44.359 L31.929,45.701 L30.793,47.101 L30.122,48.257 L29.695,49.238 L29.388,50.141 L29.146,51.027 L28.945,51.928 L28.771,52.861 L28.619,53.832 L28.485,54.846 L28.367,55.904 L28.263,57.004 L28.171,58.144 L28.09,59.324 L28.018,60.54 L27.955,61.788 L27.872,63.713 L27.783,66.367 L27.71,69.095 L27.645,71.863 L27.58,74.644 L27.509,77.404 L27.425,80.114 L27.319,82.742 L27.222,84.635 L27.147,85.85 L27.063,87.031 L26.969,88.167 L26.865,89.254 L26.749,90.286 L26.623,91.257 L26.484,92.162 L26.335,92.992 L26.177,93.736 L26.012,94.383 L25.847,94.913 L25.697,95.299 L25.589,95.495 L25.589,95.426 L25.828,94.989 L26.515,94.133 L27.658,93.155 L28.72,92.575 L29.281,92.401 L29.414,92.348 L29.291,92.247 L29.018,92.039 L28.648,91.705 L28.457,91.507 L28.502,91.553 L28.242,91.265 L27.828,90.702 L27.46,90.074 L27.116,89.355 L26.799,88.552 L26.51,87.669 L26.249,86.713 L26.017,85.69 L25.812,84.605 L25.635,83.466 L25.484,82.278 L25.358,81.048 L25.255,79.782 L25.174,78.486 L25.089,76.49 L25.038,73.786 L25.044,71.078 L25.091,68.404 L25.146,66.453 L25.187,65.187 L25.231,63.95 L25.275,62.754 L25.318,61.603 L25.357,60.502 L25.39,59.457 L25.416,58.47 L25.433,57.549 L25.438,56.694 L25.436,56.281 L25.436,56.281 C25.436,56.278 25.436,56.276 25.436,56.273 L25.436,56.273 L25.427,55.142 L25.427,52.974 L25.451,50.916 L25.499,48.959 L25.569,47.101 L25.663,45.341 L25.78,43.68 L25.919,42.116 L26.08,40.647 L26.261,39.275 L26.463,38 L26.683,36.823 L26.92,35.745 L27.17,34.769 L27.43,33.9 L27.694,33.142 L27.954,32.505 L28.197,31.995 L28.408,31.627 L28.567,31.407 L28.65,31.34 L28.634,31.418 L28.515,31.609 L28.313,31.858 L28.077,32.101 L27.873,32.288 L27.758,32.396 L27.76,32.434 L27.887,32.424 L28.131,32.389 L28.476,32.349 L28.909,32.32 L29.416,32.31 L29.986,32.325 L30.611,32.369 L31.285,32.443 L32.002,32.546 L32.758,32.679 L33.552,32.841 L34.379,33.03 L35.238,33.245 L36.129,33.484 L37.049,33.744 L37.998,34.025 L39.477,34.481 L41.54,35.141 L43.704,35.844 L45.972,36.579 L48.343,37.327 L50.813,38.073 L53.384,38.8 L56.056,39.494 L58.134,39.985 L59.556,40.294 L60.995,40.582 L62.46,40.851 L63.213,40.979 L63.213,40.979 C63.225,40.981 63.237,40.983 63.249,40.985 L63.249,40.985 L64.776,41.225 L67.911,41.642 L71.083,41.962 L74.293,42.15 L77.53,42.224 L80.775,42.217 L84.035,42.123 L87.307,41.947 L92.23,41.538 L98.857,40.739 L105.622,39.564 L112.456,38.178 L115.869,37.477 L115.869,37.477 C116.765,37.439 117.998,36.523 118.623,35.431 C119.247,34.34 119.027,33.485 118.131,33.523 C118.131,33.523 118.131,33.523 118.131,33.523 L115.342,33.086 L109.708,32.332 L103.943,31.823 L98.004,31.592 L93.498,31.467 L90.486,31.383 L87.47,31.282 L84.448,31.156 L81.433,30.98 L78.408,30.773 L75.365,30.535 L72.31,30.215 L70.751,30.016 L70.787,30.021 L70.087,29.923 L68.68,29.709 L67.29,29.474 L65.928,29.224 L63.912,28.817 L61.282,28.224 L58.73,27.592 L56.256,26.934 L53.862,26.267 L51.547,25.603 L49.311,24.959 L47.156,24.35 L45.593,23.926 L44.571,23.662 L43.567,23.414 L42.579,23.186 L41.606,22.978 L40.648,22.794 L39.703,22.636 L38.767,22.505 L37.84,22.406 L36.916,22.34 L35.99,22.313 L35.056,22.33 L34.107,22.397 L33.131,22.524 L32.115,22.725 L31.045,23.018 L29.906,23.427 L28.691,23.979 L27.405,24.701 L26.079,25.603 L24.77,26.669 L23.542,27.851 L22.446,29.09 L21.503,30.334 L20.706,31.555 L20.033,32.749 L19.462,33.924 L18.973,35.092 L18.548,36.27 L18.178,37.468 L17.852,38.701 L17.566,39.975 L17.317,41.301 L17.1,42.684 L16.915,44.129 L16.759,45.643 L16.632,47.228 L16.534,48.89 L16.463,50.63 L16.421,52.452 L16.405,54.36 L16.417,56.356 L16.456,58.442 L16.522,60.614 L16.564,61.727 L16.564,61.719 L16.577,62.057 L16.596,62.828 L16.607,63.687 L16.61,64.624 L16.608,65.632 L16.602,66.706 L16.594,67.838 L16.585,69.021 L16.578,70.251 L16.574,71.524 L16.579,73.496 L16.613,76.206 L16.692,78.973 L16.83,81.742 L16.982,83.795 L17.11,85.15 L17.262,86.483 L17.439,87.79 L17.645,89.064 L17.881,90.3 L18.15,91.493 L18.454,92.639 L18.798,93.731 L19.184,94.764 L19.617,95.734 L20.102,96.634 L20.645,97.457 L21.226,98.168 L21.498,98.447 L21.498,98.447 C21.512,98.462 21.528,98.478 21.543,98.493 L21.543,98.493 L21.878,98.8 L22.515,99.299 L23.187,99.695 L23.95,99.976 L24.913,100.091 L26.247,99.88 L28.03,99.063 L29.842,97.657 L31.149,96.191 L31.961,94.966 L32.488,93.94 L32.865,93.019 L33.157,92.134 L33.395,91.247 L33.596,90.339 L33.767,89.398 L33.914,88.418 L34.041,87.397 L34.149,86.335 L34.241,85.233 L34.318,84.092 L34.382,82.916 L34.433,81.706 L34.474,80.46 L34.518,78.545 L34.549,75.919 L34.557,73.229 L34.549,70.504 L34.535,67.774 L34.524,65.066 L34.522,62.413 L34.538,59.842 L34.567,57.986 L34.596,56.795 L34.635,55.643 L34.683,54.536 L34.742,53.478 L34.812,52.475 L34.893,51.532 L34.985,50.656 L35.089,49.857 L35.201,49.144 L35.319,48.532 L35.432,48.047 L35.516,47.726 L35.519,47.639 L35.319,47.892 L34.698,48.559 L33.625,49.346 L32.689,49.709 L32.269,49.714 L32.222,49.659 L32.381,49.679 L32.658,49.813 L33.012,50.073 L33.434,50.475 L33.679,50.745 C34.405,51.556 36.257,50.984 37.815,49.468 C39.374,47.952 40.048,46.065 39.321,45.255 L39.321,45.255" fill="#000000"/>
  </g>
</svg>
