<?xml version="1.0" encoding="UTF-8"?>
<!DOCTYPE svg PUBLIC "-//W3C//DTD SVG 1.1//EN" "http://www.w3.org/Graphics/SVG/1.1/DTD/svg11.dtd">
<svg version="1.1" xmlns="http://www.w3.org/2000/svg" xmlns:xlink="http://www.w3.org/1999/xlink" x="0" y="0" width="1020" height="200" viewBox="0, 0, 1020, 200">
  <g id="Layer_1">
    <path d="M110.18,75.881 L110.612,75.146 L111.475,73.674 L112.319,72.223 L113.14,70.803 L113.94,69.41 L114.718,68.048 L115.475,66.713 L116.211,65.407 L116.926,64.13 L117.623,62.881 L118.299,61.66 L118.956,60.468 L119.594,59.304 L120.213,58.169 L120.814,57.062 L121.397,55.982 L121.964,54.93 L122.513,53.906 L123.045,52.912 L123.56,51.944 L124.06,51.004 L124.544,50.093 L125.012,49.209 L125.464,48.354 L125.903,47.527 L126.327,46.727 L126.936,45.58 L127.702,44.147 L128.412,42.831 L129.068,41.635 L129.67,40.562 L130.217,39.616 L130.705,38.807 L131.128,38.144 L131.47,37.644 L131.719,37.326 L131.846,37.22 L131.837,37.381 L131.575,37.817 L130.989,38.465 L130.133,39.17 L129.194,39.763 L128.391,40.137 L127.847,40.328 L127.569,40.432 L127.503,40.533 L127.589,40.686 L127.789,40.913 L128.07,41.23 L128.414,41.639 L128.813,42.135 L129.257,42.722 L129.747,43.393 L130.279,44.148 L130.854,44.984 L131.475,45.896 L132.14,46.886 L132.856,47.947 L133.62,49.081 L134.438,50.286 L135.313,51.556 L136.254,52.886 L137.271,54.266 L138.358,55.703 L139.512,57.203 L140.762,58.738 L142.085,60.33 L143.485,61.979 L144.968,63.68 L146.54,65.429 L148.199,67.23 L149.944,69.085 L151.768,71.003 L153.678,72.979 L155.661,75.029 L157.829,77.039 L160.16,79.033 L161.384,80.041 L161.384,80.041 C164.057,82.244 170.081,79.982 174.84,74.989 C179.598,69.996 181.289,64.162 178.616,61.959 C178.616,61.959 178.616,61.959 178.616,61.959 L177.439,60.99 L175.131,59.087 L172.874,57.284 L170.639,55.603 L168.532,53.936 L166.534,52.298 L164.645,50.689 L162.851,49.12 L161.147,47.594 L159.523,46.119 L157.98,44.693 L156.516,43.312 L155.131,41.98 L153.793,40.721 L152.526,39.509 L151.321,38.353 L150.166,37.262 L149.064,36.229 L148.017,35.25 L147.024,34.322 L146.083,33.447 L145.184,32.628 L144.329,31.859 L143.511,31.148 L142.724,30.489 L141.964,29.882 L141.221,29.332 L140.489,28.832 L139.753,28.387 L138.997,27.998 L138.197,27.667 L137.315,27.414 L136.306,27.262 L135.103,27.268 L133.647,27.52 L131.938,28.116 L130.092,29.094 L128.323,30.35 L126.811,31.715 L125.604,33.04 L124.625,34.262 L123.751,35.392 L122.96,36.489 L122.219,37.582 L121.507,38.695 L120.804,39.846 L120.097,41.048 L119.375,42.312 L118.633,43.645 L117.862,45.053 L117.059,46.539 L116.429,47.712 L115.996,48.522 L115.553,49.355 L115.097,50.211 L114.629,51.089 L114.15,51.992 L113.657,52.917 L113.151,53.867 L112.63,54.842 L112.096,55.84 L111.547,56.863 L110.983,57.912 L110.403,58.986 L109.807,60.087 L109.194,61.213 L108.565,62.365 L107.918,63.544 L107.255,64.748 L106.572,65.98 L105.87,67.239 L105.151,68.525 L104.411,69.839 L103.652,71.181 L102.872,72.55 L102.073,73.947 L101.248,75.38 L100.82,76.119 C98.964,79.301 99.554,81.827 102.139,81.761 C104.723,81.695 108.324,79.063 110.18,75.881 L110.18,75.881" fill="#000000"/>
    <path d="M185.317,76.287 L186.316,75.787 L187.316,75.287 L187.316,75.287 C188.128,74.881 188.869,73.975 188.971,73.265 C189.072,72.554 188.496,72.307 187.684,72.713 L186.684,73.213 L185.683,73.713 C185.683,73.713 185.683,73.713 185.683,73.713 C184.871,74.12 184.13,75.025 184.029,75.736 C183.928,76.447 184.504,76.693 185.317,76.287 L185.317,76.287" fill="#000000"/>
    <path d="M127.073,46.382 L127.068,46.382 L127.068,46.382 C131.434,46.384 137.628,41.961 140.904,36.503 C144.18,31.045 143.297,26.619 138.932,26.618 L138.927,26.618 C138.927,26.618 138.927,26.618 138.927,26.618 C134.56,26.62 128.366,31.045 125.093,36.503 C121.819,41.961 122.706,46.384 127.073,46.382 L127.073,46.382" fill="#000000"/>
    <path d="M126.573,57.882 L126.568,57.882 L126.568,57.882 C130.934,57.884 137.128,53.461 140.404,48.003 C143.68,42.545 142.797,38.119 138.432,38.118 L138.427,38.118 C138.427,38.118 138.427,38.118 138.427,38.118 C134.06,38.12 127.866,42.545 124.593,48.003 C121.319,53.461 122.206,57.884 126.573,57.882 L126.573,57.882" fill="#000000"/>
    <path d="M893.316,66.254 L893.899,65.603 L895.069,64.292 L896.217,62.997 L897.337,61.733 L898.43,60.494 L899.494,59.282 L900.528,58.095 L901.536,56.935 L902.518,55.801 L903.476,54.695 L904.407,53.616 L905.313,52.56 L906.191,51.532 L907.045,50.529 L907.879,49.553 L908.688,48.604 L909.473,47.68 L910.233,46.783 L910.97,45.911 L911.684,45.064 L912.379,44.246 L913.052,43.453 L913.701,42.687 L914.329,41.948 L914.935,41.234 L915.518,40.549 L916.082,39.891 L916.625,39.261 L917.146,38.66 L917.646,38.087 L918.363,37.271 L919.246,36.283 L920.031,35.433 L920.722,34.712 L921.308,34.13 L921.775,33.696 L922.111,33.415 L922.3,33.291 L922.323,33.317 L922.177,33.468 L921.881,33.701 L921.49,33.953 L921.085,34.165 L920.749,34.307 L920.541,34.388 L920.476,34.443 L920.547,34.51 L920.733,34.62 L921.013,34.793 L921.37,35.042 L921.789,35.371 L922.261,35.782 L922.784,36.274 L923.354,36.846 L923.97,37.496 L924.633,38.221 L925.346,39.019 L926.11,39.888 L926.927,40.826 L927.8,41.831 L928.733,42.902 L929.729,44.038 L930.793,45.233 L931.931,46.486 L933.143,47.798 L934.433,49.169 L935.812,50.587 L937.277,52.061 L938.831,53.588 L940.486,55.16 L941.797,56.373 L942.702,57.198 L943.632,58.034 L944.587,58.881 L945.574,59.734 L946.589,60.598 L947.632,61.475 L948.703,62.363 L949.802,63.263 L950.932,64.172 L952.098,65.087 L953.293,66.012 L954.519,66.948 L955.777,67.895 L957.067,68.853 L958.391,69.818 L959.751,70.789 L961.144,71.771 L961.858,72.269 L961.858,72.269 C964.124,73.843 968.935,71.866 972.604,67.852 C976.272,63.837 977.409,59.306 975.142,57.731 L974.449,57.252 L973.079,56.293 L971.743,55.345 L970.435,54.411 L969.159,53.49 L967.913,52.579 L966.7,51.678 L965.516,50.787 L964.363,49.908 L963.235,49.046 L962.134,48.195 L961.062,47.356 L960.018,46.527 L959.002,45.71 L958.013,44.903 L957.046,44.115 L956.104,43.339 L955.191,42.575 L953.868,41.452 L952.182,39.993 L950.582,38.59 L949.073,37.235 L947.649,35.928 L946.299,34.68 L945.028,33.482 L943.829,32.333 L942.696,31.239 L941.626,30.199 L940.616,29.211 L939.661,28.274 L938.757,27.39 L937.899,26.559 L937.081,25.781 L936.296,25.056 L935.538,24.383 L934.801,23.762 L934.075,23.193 L933.35,22.677 L932.613,22.215 L931.849,21.81 L931.034,21.469 L930.144,21.208 L929.149,21.046 L928.019,21.019 L926.74,21.166 L925.321,21.523 L923.809,22.102 L922.281,22.875 L920.811,23.784 L919.444,24.771 L918.192,25.791 L917.042,26.822 L915.97,27.861 L914.95,28.913 L913.962,29.983 L912.985,31.086 L911.999,32.231 L910.999,33.411 L910.228,34.336 L909.696,34.979 L909.153,35.64 L908.6,36.316 L908.032,37.008 L907.449,37.719 L906.852,38.447 L906.239,39.195 L905.61,39.963 L904.965,40.75 L904.302,41.558 L903.617,42.385 L902.912,43.233 L902.187,44.103 L901.443,44.994 L900.677,45.908 L899.889,46.843 L899.074,47.799 L898.236,48.779 L897.375,49.781 L896.49,50.806 L895.58,51.855 L894.641,52.927 L893.674,54.02 L892.681,55.139 L891.661,56.281 L890.613,57.447 L889.535,58.639 L888.427,59.852 L887.281,61.099 L886.684,61.746 C886.684,61.746 886.684,61.746 886.684,61.746 C883.754,64.969 882.864,68.591 884.696,69.836 C886.527,71.08 890.387,69.476 893.316,66.254 L893.316,66.254" fill="#000000"/>
    <path d="M129.125,63.043 L129.152,63.501 L129.195,64.438 L129.225,65.429 L129.243,66.485 L129.249,67.599 L129.245,68.77 L129.23,69.996 L129.206,71.275 L129.179,72.599 L129.146,73.968 L129.104,75.383 L129.056,76.84 L129,78.337 L128.938,79.871 L128.835,82.242 L128.679,85.512 L128.509,88.893 L128.327,92.367 L128.154,95.909 L127.902,101.319 L127.586,108.635 L127.383,114.128 L127.273,117.763 L127.19,121.348 L127.148,124.865 L127.141,128.305 L127.16,130.828 L127.186,132.48 L127.223,134.098 L127.271,135.685 L127.332,137.24 L127.406,138.76 L127.493,140.243 L127.594,141.688 L127.711,143.093 L127.842,144.456 L127.99,145.773 L128.155,147.046 L128.338,148.27 L128.54,149.445 L128.761,150.569 L129.004,151.642 L129.269,152.66 L129.558,153.623 L129.874,154.529 L130.22,155.376 L130.598,156.164 L131.012,156.892 L131.257,157.267 L131.257,157.267 C131.279,157.298 131.301,157.329 131.324,157.358 L131.324,157.358 L131.393,157.45 L131.684,157.774 L132.043,158.092 L132.424,158.371 L132.83,158.623 L133.262,158.856 L133.72,159.076 L134.207,159.286 L134.723,159.488 L135.269,159.685 L136.134,159.968 L137.403,160.336 L138.807,160.697 L140.331,161.05 L141.975,161.395 L143.733,161.734 L145.603,162.067 L147.58,162.395 L149.661,162.717 L151.84,163.035 L154.113,163.347 L156.475,163.655 L158.922,163.958 L161.449,164.256 L164.049,164.55 L166.72,164.837 L169.458,165.115 L172.257,165.387 L175.11,165.655 L178.011,165.917 L180.958,166.174 L183.944,166.425 L186.963,166.671 L191.543,167.03 L197.722,167.49 L203.946,167.928 L210.176,168.338 L216.372,168.718 L222.487,169.075 L226.997,169.326 L229.958,169.487 L232.874,169.641 L235.742,169.788 L238.556,169.93 L241.311,170.065 L244.002,170.194 L246.625,170.316 L249.173,170.432 L251.641,170.541 L254.025,170.643 L256.321,170.736 L258.522,170.822 L260.624,170.902 L262.619,170.975 L264.505,171.041 L266.274,171.1 L267.924,171.153 L269.449,171.199 L270.842,171.238 L272.1,171.27 L272.955,171.289 L273.482,171.3 L273.969,171.309 L274.421,171.317 L274.837,171.322 L275.217,171.326 L275.397,171.327 L275.397,171.327 C275.405,171.327 275.412,171.327 275.42,171.327 L275.42,171.327 L278.19,171.333 L283.78,171.289 L289.385,171.172 L294.99,170.986 L300.594,170.735 L306.201,170.42 L311.806,170.044 L317.41,169.616 L323.011,169.139 L328.611,168.618 L336.995,167.761 L348.169,166.499 L359.339,165.127 L376.062,162.922 L392.754,160.653 L403.852,159.158 L414.926,157.712 L425.982,156.337 L434.249,155.379 L439.748,154.783 L445.249,154.223 L450.744,153.705 L453.477,153.464 L453.455,153.465 L456.651,153.197 L463.018,152.704 L469.39,152.263 L475.782,151.866 L482.188,151.515 L488.608,151.208 L495.039,150.944 L501.482,150.72 L507.936,150.534 L514.399,150.383 L524.116,150.218 L537.097,150.094 L550.097,150.061 L563.111,150.108 L576.132,150.215 L595.663,150.448 L615.175,150.692 L628.158,150.839 L641.114,150.952 L654.032,151.011 L660.483,151.013 L660.484,151.013 L663.431,151.013 L669.302,151.045 L678.109,151.168 L689.859,151.455 L701.613,151.857 L713.381,152.349 L725.158,152.903 L742.857,153.772 L760.573,154.627 L772.399,155.145 L784.232,155.589 L796.075,155.93 L804.973,156.097 L810.91,156.162 L816.844,156.187 L822.779,156.167 L828.719,156.097 L834.664,155.971 L840.62,155.774 L846.579,155.519 L849.58,155.353 L849.58,155.353 C849.581,155.353 849.581,155.353 849.581,155.353 L849.581,155.353 L849.833,155.339 L850.342,155.313 L850.897,155.289 L851.507,155.266 L852.166,155.245 L852.873,155.224 L853.624,155.205 L854.418,155.186 L855.686,155.159 L857.512,155.11 L859.476,155.054 L861.563,154.994 L863.778,154.895 L866.114,154.745 L868.623,154.431 L871.368,153.824 L874.171,153.196 L877.018,152.546 L881.331,151.537 L885.658,150.487 L888.496,149.82 L890.964,149.726 L893.397,149.609 L895.781,149.467 L898.104,149.298 L900.355,149.099 L902.524,148.868 L904.592,148.614 L906.077,148.406 L907.037,148.254 L907.963,148.091 L908.86,147.917 L909.729,147.731 L910.568,147.531 L911.38,147.315 L912.164,147.083 L912.923,146.832 L913.66,146.556 L914.38,146.26 L915.092,145.931 L915.812,145.546 L916.552,145.083 L917.032,144.739 L917.032,144.739 C917.112,144.678 917.191,144.614 917.268,144.549 L917.268,144.549 L917.589,144.297 L918.587,143.386 L919.614,142.275 L920.532,141.115 L921.47,139.929 L922.362,138.68 L923.209,137.37 L924.024,135.998 L924.816,134.564 L925.589,133.065 L926.346,131.501 L927.09,129.874 L927.822,128.184 L928.543,126.434 L929.255,124.623 L929.957,122.756 L930.65,120.832 L931.334,118.858 L932.01,116.833 L932.654,114.773 L932.953,112.835 L933.236,110.865 L933.502,108.866 L933.754,106.839 L933.99,104.788 L934.212,102.713 L934.518,99.575 L934.879,95.327 L935.188,91.024 L935.45,86.694 L935.678,82.356 L935.86,78.035 L936,73.754 L936.1,69.538 L936.161,65.404 L936.184,62.368 L936.193,60.376 L936.199,58.421 L936.196,56.502 L936.185,54.623 L936.166,52.786 L936.14,50.992 L936.106,49.247 L936.065,47.552 L936.016,45.909 L935.968,44.318 L935.917,42.781 L935.859,41.306 L935.794,39.896 L935.723,38.55 L935.645,37.273 L935.563,36.065 L935.48,34.925 L935.391,33.859 L935.294,32.868 L935.241,32.383 L935.241,32.383 C934.776,29.021 930.711,28.81 926.159,31.912 C921.608,35.014 918.295,40.254 918.759,43.617 C918.759,43.617 918.759,43.617 918.759,43.617 L918.824,43.984 L918.958,44.824 L919.093,45.751 L919.227,46.762 L919.354,47.858 L919.477,49.032 L919.598,50.276 L919.715,51.592 L919.83,52.973 L919.94,54.415 L920.042,55.921 L920.132,57.488 L920.217,59.109 L920.297,60.78 L920.371,62.498 L920.438,64.263 L920.499,66.069 L920.553,67.914 L920.6,69.795 L920.635,71.706 L920.663,74.636 L920.672,78.639 L920.644,82.723 L920.578,86.863 L920.471,91.035 L920.322,95.218 L920.115,99.392 L919.859,103.529 L919.554,107.614 L919.292,110.626 L919.101,112.594 L918.897,114.531 L918.681,116.435 L918.45,118.304 L918.206,120.131 L917.949,121.914 L918.006,123.495 L918.064,125.023 L918.099,126.509 L918.111,127.948 L918.1,129.339 L918.064,130.677 L918.005,131.96 L917.922,133.183 L917.816,134.341 L917.688,135.43 L917.54,136.445 L917.374,137.381 L917.195,138.231 L917.009,138.987 L916.832,139.643 L916.661,140.195 L916.431,140.601 L916.27,140.878 L916.04,141.171 L915.732,141.451 L915.967,141.261 L916.055,141.219 L915.929,141.341 L915.68,141.52 L915.327,141.731 L914.886,141.954 L914.37,142.177 L913.787,142.402 L913.143,142.627 L912.445,142.848 L911.695,143.066 L910.898,143.277 L910.058,143.483 L909.177,143.682 L908.265,143.874 L906.823,144.15 L904.786,144.483 L902.643,144.777 L900.403,145.045 L898.079,145.286 L895.686,145.503 L893.238,145.698 L890.748,145.871 L888.575,145.43 L885.345,144.652 L882.13,143.842 L880.015,143.292 L877.934,142.74 L875.897,142.192 L873.754,141.92 L871.591,141.802 L869.487,141.726 L867.461,141.684 L865.544,141.646 L863.746,141.618 L862.48,141.61 L861.678,141.606 L860.914,141.605 L860.186,141.606 L859.496,141.61 L858.845,141.617 L858.232,141.626 L857.668,141.64 L857.418,141.647 L857.419,141.647 L854.536,141.733 L848.724,141.891 L842.908,141.992 L837.079,142.055 L831.243,142.073 L825.402,142.047 L819.558,141.976 L813.717,141.865 L804.945,141.63 L793.226,141.212 L781.494,140.696 L769.753,140.106 L752.115,139.139 L734.458,138.157 L722.665,137.552 L710.864,137.009 L699.05,136.554 L687.235,136.216 L678.369,136.055 L672.459,135.999 L669.516,135.987 L669.516,135.987 C666.2,135.981 661.49,139.34 658.996,143.489 C656.501,147.639 657.167,151.007 660.483,151.013 C663.799,151.019 668.51,147.66 671.004,143.511 C673.499,139.361 672.833,135.993 669.517,135.987 L669.517,135.987 L663.113,135.969 L650.249,135.884 L637.337,135.744 L624.38,135.57 L604.878,135.286 L585.313,135.049 L572.247,134.941 L559.174,134.894 L546.1,134.927 L533.033,135.067 L523.24,135.254 L516.713,135.419 L510.191,135.621 L503.675,135.861 L497.165,136.141 L490.664,136.464 L484.17,136.834 L477.685,137.252 L471.207,137.726 L464.75,138.252 L461.545,138.535 L461.545,138.535 C461.538,138.535 461.53,138.536 461.523,138.536 L461.523,138.536 L458.715,138.796 L453.124,139.345 L447.534,139.937 L441.937,140.566 L433.552,141.571 L422.389,143.002 L411.23,144.521 L400.082,146.089 L383.385,148.458 L366.701,150.758 L355.595,152.208 L344.49,153.554 L336.163,154.474 L330.624,155.037 L325.086,155.555 L319.552,156.025 L314.021,156.442 L308.491,156.808 L302.962,157.117 L297.435,157.362 L291.91,157.54 L286.373,157.647 L283.58,157.673 L283.603,157.673 L283.447,157.674 L283.095,157.674 L282.701,157.674 L282.266,157.672 L281.79,157.668 L281.28,157.664 L280.442,157.654 L279.195,157.637 L277.809,157.614 L276.29,157.586 L274.643,157.552 L272.872,157.513 L270.985,157.469 L268.986,157.419 L266.881,157.364 L264.674,157.303 L262.371,157.237 L259.976,157.168 L257.495,157.094 L254.933,157.015 L252.298,156.931 L249.592,156.842 L246.82,156.746 L243.991,156.646 L241.107,156.54 L238.175,156.428 L235.201,156.311 L230.668,156.125 L224.52,155.858 L218.293,155.568 L212.025,155.262 L205.758,154.938 L199.537,154.591 L194.926,154.315 L191.89,154.124 L188.89,153.927 L185.931,153.725 L183.017,153.516 L180.156,153.302 L177.351,153.082 L174.608,152.856 L171.93,152.629 L169.324,152.396 L166.796,152.158 L164.352,151.914 L161.998,151.664 L159.739,151.407 L157.58,151.145 L155.528,150.877 L153.588,150.604 L151.767,150.325 L150.07,150.041 L148.505,149.754 L147.078,149.463 L145.799,149.17 L144.662,148.873 L143.911,148.651 L143.473,148.507 L143.079,148.367 L142.733,148.232 L142.437,148.104 L142.193,147.986 L142.004,147.885 L141.873,147.808 L141.801,147.769 L141.748,147.732 L141.676,147.642 L141.743,147.733 L141.618,147.564 L141.323,147.095 L141.032,146.544 L140.749,145.914 L140.474,145.209 L140.21,144.433 L139.958,143.586 L139.719,142.673 L139.493,141.696 L139.281,140.658 L139.082,139.56 L138.896,138.408 L138.724,137.202 L138.564,135.945 L138.417,134.64 L138.283,133.289 L138.16,131.895 L138.049,130.459 L137.949,128.985 L137.859,127.473 L137.78,125.929 L137.711,124.357 L137.624,121.94 L137.539,118.621 L137.485,115.215 L137.446,111.746 L137.428,108.23 L137.438,102.891 L137.498,95.747 L137.56,90.45 L137.598,86.983 L137.618,83.592 L137.631,80.286 L137.633,77.081 L137.626,74.757 L137.617,73.245 L137.602,71.768 L137.582,70.327 L137.557,68.926 L137.526,67.565 L137.485,66.247 L137.431,64.978 L137.369,63.755 L137.299,62.579 L137.221,61.454 L137.134,60.38 L137.037,59.357 L136.931,58.4 L136.875,57.957 C136.725,56.335 134.868,56.159 132.728,57.563 C130.588,58.967 128.975,61.421 129.125,63.043 L129.125,63.043" fill="#000000"/>
  </g>
</svg>
